<svg width="698" height="572" xmlns="http://www.w3.org/2000/svg" xmlns:xlink="http://www.w3.org/1999/xlink" overflow="hidden"><defs><clipPath id="clip0"><rect x="288" y="82" width="698" height="572"/></clipPath></defs><g clip-path="url(#clip0)" transform="translate(-288 -82)"><rect x="295" y="86" width="690" height="566" stroke="#000000" stroke-width="2" stroke-miterlimit="8" fill="none"/><text font-family="Calibri,Calibri_MSFontService,sans-serif" font-weight="400" font-size="27" transform="translate(304.933 115)">Host machine</text><path d="M527.5 460.5C527.5 450.007 536.007 441.5 546.5 441.5L734.5 441.5C744.993 441.5 753.5 450.007 753.5 460.5L753.5 536.5C753.5 546.993 744.993 555.5 734.5 555.5L546.5 555.5C536.007 555.5 527.5 546.993 527.5 536.5Z" stroke="#507E32" stroke-width="1.33333" stroke-miterlimit="8" fill="#70AD47" fill-rule="evenodd"/><text fill="#FFFFFF" font-family="Calibri,Calibri_MSFontService,sans-serif" font-weight="400" font-size="24" transform="translate(572.07 491)">Docker bridge</text><text fill="#FFFFFF" font-family="Calibri,Calibri_MSFontService,sans-serif" font-weight="400" font-size="24" transform="translate(599.337 520)">network</text><path d="M353.5 189.501C353.5 165.2 373.2 145.5 397.501 145.5L573.499 145.5C597.8 145.5 617.5 165.2 617.5 189.501L617.5 365.499C617.5 389.8 597.8 409.5 573.499 409.5L397.501 409.5C373.2 409.5 353.5 389.8 353.5 365.499Z" stroke="#2F528F" stroke-width="1.33333" stroke-miterlimit="8" fill="#4472C4" fill-rule="evenodd"/><text fill="#FFFFFF" font-family="Calibri,Calibri_MSFontService,sans-serif" font-weight="400" font-size="24" transform="translate(405.167 284)">Robot Container</text><path d="M663.5 189.501C663.5 165.2 683.2 145.5 707.501 145.5L883.499 145.5C907.8 145.5 927.5 165.2 927.5 189.501L927.5 365.499C927.5 389.8 907.8 409.5 883.499 409.5L707.501 409.5C683.2 409.5 663.5 389.8 663.5 365.499Z" stroke="#2F528F" stroke-width="1.33333" stroke-miterlimit="8" fill="#4472C4" fill-rule="evenodd"/><text fill="#FFFFFF" font-family="Calibri,Calibri_MSFontService,sans-serif" font-weight="400" font-size="24" transform="translate(720.87 284)">Edge Container</text><path d="M0 0 88.7894 0 88.7894 41.6169" stroke="#000000" stroke-width="2" stroke-miterlimit="8" fill="none" fill-rule="evenodd" transform="matrix(1.83697e-16 1 1 -1.83697e-16 485 409)"/><path d="M794.617 409 794.617 497.789 753 497.789" stroke="#000000" stroke-width="2" stroke-miterlimit="8" fill="none" fill-rule="evenodd"/><rect x="295.5" y="587.5" width="690" height="65" stroke="#507E32" stroke-width="1.33333" stroke-miterlimit="8" fill="#70AD47"/><text fill="#FFFFFF" font-family="Calibri,Calibri_MSFontService,sans-serif" font-weight="400" font-size="24" transform="translate(523.53 627)">Host network interfaces</text><path d="M0 0 0.000209974 32.0965" stroke="#000000" stroke-width="2" stroke-miterlimit="8" fill="none" fill-rule="evenodd" transform="matrix(-1 0 0 1 640 555)"/></g></svg>