<svg width="1134" height="579" xmlns="http://www.w3.org/2000/svg" xmlns:xlink="http://www.w3.org/1999/xlink" overflow="hidden"><defs><clipPath id="clip0"><rect x="71" y="70" width="1134" height="579"/></clipPath></defs><g clip-path="url(#clip0)" transform="translate(-71 -70)"><rect x="77" y="73" width="484" height="574" stroke="#000000" stroke-width="2" stroke-miterlimit="8" fill="none"/><rect x="719" y="73" width="484" height="574" stroke="#000000" stroke-width="2" stroke-miterlimit="8" fill="none"/><text font-family="Calibri,Calibri_MSFontService,sans-serif" font-weight="400" font-size="24" transform="translate(86.4889 100)">Robot</text><text font-family="Calibri,Calibri_MSFontService,sans-serif" font-weight="400" font-size="24" transform="translate(150.496 100)">syste</text><text font-family="Calibri,Calibri_MSFontService,sans-serif" font-weight="400" font-size="24" transform="translate(198.816 100)">m</text><text font-family="Calibri,Calibri_MSFontService,sans-serif" font-weight="400" font-size="24" transform="translate(728.711 100)">Edge system</text><path d="M139.5 295.834C139.5 287.365 146.365 280.5 154.834 280.5L375.166 280.5C383.635 280.5 390.5 287.365 390.5 295.834L390.5 357.166C390.5 365.635 383.635 372.5 375.166 372.5L154.834 372.5C146.365 372.5 139.5 365.635 139.5 357.166Z" stroke="#AE5A21" stroke-width="1.33333" stroke-miterlimit="8" fill="#ED7D31" fill-rule="evenodd"/><text fill="#FFFFFF" font-family="Calibri,Calibri_MSFontService,sans-serif" font-weight="400" font-size="24" transform="translate(173.311 333)">Offloading module</text><path d="M139.5 188.834C139.5 180.365 146.365 173.5 154.834 173.5L375.166 173.5C383.635 173.5 390.5 180.365 390.5 188.834L390.5 250.166C390.5 258.635 383.635 265.5 375.166 265.5L154.834 265.5C146.365 265.5 139.5 258.635 139.5 250.166Z" stroke="#2F528F" stroke-width="1.33333" stroke-miterlimit="8" fill="#4472C4" fill-rule="evenodd"/><text fill="#FFFFFF" font-family="Calibri,Calibri_MSFontService,sans-serif" font-weight="400" font-size="24" transform="translate(212.471 226)">Simulation</text><path d="M139.5 402.834C139.5 394.365 146.365 387.5 154.834 387.5L375.166 387.5C383.635 387.5 390.5 394.365 390.5 402.834L390.5 464.166C390.5 472.635 383.635 479.5 375.166 479.5L154.834 479.5C146.365 479.5 139.5 472.635 139.5 464.166Z" stroke="#2F528F" stroke-width="1.33333" stroke-miterlimit="8" fill="#4472C4" fill-rule="evenodd"/><text fill="#FFFFFF" font-family="Calibri,Calibri_MSFontService,sans-serif" font-weight="400" font-size="24" transform="translate(179.338 426)">Robot</text><text fill="#FFFFFF" font-family="Calibri,Calibri_MSFontService,sans-serif" font-weight="400" font-size="24" transform="translate(243.345 426)">p</text><text fill="#FFFFFF" font-family="Calibri,Calibri_MSFontService,sans-serif" font-weight="400" font-size="24" transform="translate(256.011 426)">erception</text><text fill="#FFFFFF" font-family="Calibri,Calibri_MSFontService,sans-serif" font-weight="400" font-size="24" transform="translate(227.111 455)">module</text><path d="M139.5 509.834C139.5 501.365 146.365 494.5 154.834 494.5L375.166 494.5C383.635 494.5 390.5 501.365 390.5 509.834L390.5 571.166C390.5 579.635 383.635 586.5 375.166 586.5L154.834 586.5C146.365 586.5 139.5 579.635 139.5 571.166Z" stroke="#787878" stroke-width="1.33333" stroke-miterlimit="8" fill="#A5A5A5" fill-rule="evenodd"/><text fill="#FFFFFF" font-family="Calibri,Calibri_MSFontService,sans-serif" font-weight="400" font-size="24" transform="translate(192.988 548)">State</text><text fill="#FFFFFF" font-family="Calibri,Calibri_MSFontService,sans-serif" font-weight="400" font-size="24" transform="translate(248.215 548)">monitors</text><path d="M836.5 294.834C836.5 286.365 843.365 279.5 851.834 279.5L1072.17 279.5C1080.63 279.5 1087.5 286.365 1087.5 294.834L1087.5 356.166C1087.5 364.635 1080.63 371.5 1072.17 371.5L851.834 371.5C843.365 371.5 836.5 364.635 836.5 356.166Z" stroke="#2F528F" stroke-width="1.33333" stroke-miterlimit="8" fill="#4472C4" fill-rule="evenodd"/><text fill="#FFFFFF" font-family="Calibri,Calibri_MSFontService,sans-serif" font-weight="400" font-size="24" transform="translate(881.701 319)">Edge</text><text fill="#FFFFFF" font-family="Calibri,Calibri_MSFontService,sans-serif" font-weight="400" font-size="24" transform="translate(934.314 319)">p</text><text fill="#FFFFFF" font-family="Calibri,Calibri_MSFontService,sans-serif" font-weight="400" font-size="24" transform="translate(946.981 319)">erception</text><text fill="#FFFFFF" font-family="Calibri,Calibri_MSFontService,sans-serif" font-weight="400" font-size="24" transform="translate(923.774 348)">module</text><path d="M836.5 402.834C836.5 394.365 843.365 387.5 851.834 387.5L1072.17 387.5C1080.63 387.5 1087.5 394.365 1087.5 402.834L1087.5 464.166C1087.5 472.635 1080.63 479.5 1072.17 479.5L851.834 479.5C843.365 479.5 836.5 472.635 836.5 464.166Z" stroke="#787878" stroke-width="1.33333" stroke-miterlimit="8" fill="#A5A5A5" fill-rule="evenodd"/><text fill="#FFFFFF" font-family="Calibri,Calibri_MSFontService,sans-serif" font-weight="400" font-size="24" transform="translate(889.655 441)">State</text><text fill="#FFFFFF" font-family="Calibri,Calibri_MSFontService,sans-serif" font-weight="400" font-size="24" transform="translate(944.881 441)">monitors</text><rect x="561.5" y="180.5" width="158" height="383" stroke="#507E32" stroke-width="1.33333" stroke-miterlimit="8" fill="#70AD47"/><text fill="#FFFFFF" font-family="Calibri,Calibri_MSFontService,sans-serif" font-weight="400" font-size="24" transform="translate(597.537 350)">Ethernet</text><text fill="#FFFFFF" font-family="Calibri,Calibri_MSFontService,sans-serif" font-weight="400" font-size="24" transform="translate(629.503 379)">or</text><text fill="#FFFFFF" font-family="Calibri,Calibri_MSFontService,sans-serif" font-weight="400" font-size="24" transform="translate(614.67 408)">Wi</text><text fill="#FFFFFF" font-family="Calibri,Calibri_MSFontService,sans-serif" font-weight="400" font-size="24" transform="translate(641.503 408)">-</text><text fill="#FFFFFF" font-family="Calibri,Calibri_MSFontService,sans-serif" font-weight="400" font-size="24" transform="translate(648.837 408)">Fi</text><rect x="452.5" y="180.5" width="109" height="383" stroke="#2F528F" stroke-width="1.33333" stroke-miterlimit="8" fill="#548235"/><text fill="#FFFFFF" font-family="Calibri,Calibri_MSFontService,sans-serif" font-weight="400" font-size="24" transform="translate(470.308 365)">NetEm</text><text fill="#FFFFFF" font-family="Calibri,Calibri_MSFontService,sans-serif" font-weight="400" font-size="24" transform="translate(458.581 394)">(optional</text><text fill="#FFFFFF" font-family="Calibri,Calibri_MSFontService,sans-serif" font-weight="400" font-size="24" transform="translate(546.974 394)">)</text></g></svg>