<svg width="1269" height="648" xmlns="http://www.w3.org/2000/svg" xmlns:xlink="http://www.w3.org/1999/xlink" overflow="hidden"><defs><clipPath id="clip0"><rect x="9" y="17" width="1269" height="648"/></clipPath></defs><g clip-path="url(#clip0)" transform="translate(-9 -17)"><rect x="985.5" y="24.5001" width="285" height="581" stroke="#000000" stroke-width="1.33333" stroke-miterlimit="8" stroke-dasharray="5.33333 4" fill="none"/><rect x="10.5001" y="24.5001" width="912" height="581" stroke="#000000" stroke-width="1.33333" stroke-miterlimit="8" stroke-dasharray="5.33333 4" fill="none"/><rect x="811.5" y="223.5" width="111" height="353" stroke="#507E32" stroke-width="1.33333" stroke-miterlimit="8" fill="#70AD47"/><text fill="#FFFFFF" font-family="Calibri,Calibri_MSFontService,sans-serif" font-weight="400" font-size="21" transform="translate(828.975 368)">Network</text><text fill="#FFFFFF" font-family="Calibri,Calibri_MSFontService,sans-serif" font-weight="400" font-size="21" transform="translate(857.148 394)">or</text><text fill="#FFFFFF" font-family="Calibri,Calibri_MSFontService,sans-serif" font-weight="400" font-size="21" transform="translate(828.975 419)">Network</text><text fill="#FFFFFF" font-family="Calibri,Calibri_MSFontService,sans-serif" font-weight="400" font-size="21" transform="translate(826.855 445)">emulator</text><path d="M433.5 222.167C433.5 215.171 439.171 209.5 446.167 209.5L609.833 209.5C616.829 209.5 622.5 215.171 622.5 222.167L622.5 272.833C622.5 279.829 616.829 285.5 609.833 285.5L446.167 285.5C439.171 285.5 433.5 279.829 433.5 272.833Z" stroke="#2F528F" stroke-width="1.33333" stroke-miterlimit="8" fill="#4472C4" fill-rule="evenodd"/><text fill="#FFFFFF" font-family="Calibri,Calibri_MSFontService,sans-serif" font-weight="400" font-size="21" transform="translate(457.458 254)">Offloading node</text><path d="M433.5 62.167C433.5 55.1713 439.171 49.5001 446.167 49.5001L609.833 49.5001C616.829 49.5001 622.5 55.1713 622.5 62.167L622.5 112.833C622.5 119.829 616.829 125.5 609.833 125.5L446.167 125.5C439.171 125.5 433.5 119.829 433.5 112.833Z" stroke="#2F528F" stroke-width="1.33333" stroke-miterlimit="8" fill="#4472C4" fill-rule="evenodd"/><text fill="#FFFFFF" font-family="Calibri,Calibri_MSFontService,sans-serif" font-weight="400" font-size="21" transform="translate(481.852 94)">Simulation</text><path d="M509.5 167.5C509.5 157.559 517.559 149.5 527.5 149.5 537.441 149.5 545.5 157.559 545.5 167.5 545.5 177.441 537.441 185.5 527.5 185.5 517.559 185.5 509.5 177.441 509.5 167.5Z" stroke="#AE5A21" stroke-width="1.33333" stroke-miterlimit="8" fill="#ED7D31" fill-rule="evenodd"/><text font-family="Calibri,Calibri_MSFontService,sans-serif" font-weight="400" font-size="19" transform="translate(558.762 171)">/rgb_image</text><text font-family="Calibri,Calibri_MSFontService,sans-serif" font-weight="400" font-size="19" transform="translate(1133.15 365)">/offloading_edge</text><text font-family="Calibri,Calibri_MSFontService,sans-serif" font-weight="400" font-size="19" transform="translate(553.934 365)">/offloading_robot</text><path d="M433.5 415.167C433.5 408.171 439.171 402.5 446.167 402.5L609.833 402.5C616.829 402.5 622.5 408.171 622.5 415.167L622.5 465.833C622.5 472.829 616.829 478.5 609.833 478.5L446.167 478.5C439.171 478.5 433.5 472.829 433.5 465.833Z" stroke="#2F528F" stroke-width="1.33333" stroke-miterlimit="8" fill="#4472C4" fill-rule="evenodd"/><text fill="#FFFFFF" font-family="Calibri,Calibri_MSFontService,sans-serif" font-weight="400" font-size="21" transform="translate(455.854 435)">Perception node</text><text fill="#FFFFFF" font-family="Calibri,Calibri_MSFontService,sans-serif" font-weight="400" font-size="21" transform="translate(481.681 461)">(YOLOv5n)</text><path d="M1011.5 415.167C1011.5 408.171 1017.17 402.5 1024.17 402.5L1187.83 402.5C1194.83 402.5 1200.5 408.171 1200.5 415.167L1200.5 465.833C1200.5 472.829 1194.83 478.5 1187.83 478.5L1024.17 478.5C1017.17 478.5 1011.5 472.829 1011.5 465.833Z" stroke="#2F528F" stroke-width="1.33333" stroke-miterlimit="8" fill="#4472C4" fill-rule="evenodd"/><text fill="#FFFFFF" font-family="Calibri,Calibri_MSFontService,sans-serif" font-weight="400" font-size="21" transform="translate(1034.36 435)">Perception node</text><text fill="#FFFFFF" font-family="Calibri,Calibri_MSFontService,sans-serif" font-weight="400" font-size="21" transform="translate(1063.36 461)">(YOLOv5l)</text><path d="M509.5 361C509.5 351.335 517.559 343.5 527.5 343.5 537.441 343.5 545.5 351.335 545.5 361 545.5 370.665 537.441 378.5 527.5 378.5 517.559 378.5 509.5 370.665 509.5 361Z" stroke="#AE5A21" stroke-width="1.33333" stroke-miterlimit="8" fill="#ED7D31" fill-rule="evenodd"/><path d="M1088.5 361C1088.5 351.335 1096.56 343.5 1106.5 343.5 1116.44 343.5 1124.5 351.335 1124.5 361 1124.5 370.665 1116.44 378.5 1106.5 378.5 1096.56 378.5 1088.5 370.665 1088.5 361Z" stroke="#AE5A21" stroke-width="1.33333" stroke-miterlimit="8" fill="#ED7D31" fill-rule="evenodd"/><text font-family="Calibri,Calibri_MSFontService,sans-serif" font-weight="400" font-size="24" transform="translate(638.911 295)">OFFLOAD</text><text font-family="Calibri,Calibri_MSFontService,sans-serif" font-weight="400" font-size="24" transform="translate(455.202 324)">LOCAL</text><text font-family="Calibri,Calibri_MSFontService,sans-serif" font-weight="400" font-size="19" transform="translate(558.762 562)">/perception/objects</text><path d="M154.5 415.167C154.5 408.171 160.171 402.5 167.167 402.5L330.833 402.5C337.829 402.5 343.5 408.171 343.5 415.167L343.5 465.833C343.5 472.829 337.829 478.5 330.833 478.5L167.167 478.5C160.171 478.5 154.5 472.829 154.5 465.833Z" stroke="#2F528F" stroke-width="1.33333" stroke-miterlimit="8" fill="#4472C4" fill-rule="evenodd"/><text fill="#FFFFFF" font-family="Calibri,Calibri_MSFontService,sans-serif" font-weight="400" font-size="21" transform="translate(190.185 435)">Robot system</text><text fill="#FFFFFF" font-family="Calibri,Calibri_MSFontService,sans-serif" font-weight="400" font-size="21" transform="translate(198.372 461)">status node</text><path d="M509.5 558.5C509.5 548.559 517.559 540.5 527.5 540.5 537.441 540.5 545.5 548.559 545.5 558.5 545.5 568.441 537.441 576.5 527.5 576.5 517.559 576.5 509.5 568.441 509.5 558.5Z" stroke="#AE5A21" stroke-width="1.33333" stroke-miterlimit="8" fill="#ED7D31" fill-rule="evenodd"/><path d="M340.5 226C340.5 216.335 348.559 208.5 358.5 208.5 368.441 208.5 376.5 216.335 376.5 226 376.5 235.665 368.441 243.5 358.5 243.5 348.559 243.5 340.5 235.665 340.5 226Z" stroke="#AE5A21" stroke-width="1.33333" stroke-miterlimit="8" fill="#ED7D31" fill-rule="evenodd"/><path d="M340.5 180C340.5 170.335 348.559 162.5 358.5 162.5 368.441 162.5 376.5 170.335 376.5 180 376.5 189.665 368.441 197.5 358.5 197.5 348.559 197.5 340.5 189.665 340.5 180Z" stroke="#AE5A21" stroke-width="1.33333" stroke-miterlimit="8" fill="#ED7D31" fill-rule="evenodd"/><path d="M1106.34 478.5 1106.34 509.947 527.5 509.947 527.833 509.614 527.833 534.061 527.167 534.061 527.167 509.281 1106.01 509.281 1105.68 509.614 1105.68 478.5ZM531.5 532.727 527.5 540.727 523.5 532.727Z"/><path d="M1011.52 441.093 951.466 441.093 951.466 246.5 951.8 246.833 763.167 246.833 763.167 246.167 952.133 246.167 952.133 440.76 951.8 440.427 1011.52 440.427ZM764.5 250.5 756.5 246.5 764.5 242.5Z"/><path d="M527.833 478.5 527.833 534.15 527.167 534.15 527.167 478.5ZM531.5 532.817 527.5 540.817 523.5 532.817Z"/><path d="M0.333214-0.0089049 0.80299 17.5698 0.136562 17.5876-0.333214 0.0089049ZM4.43273 16.1389 0.647874 24.2429-3.56442 16.3527Z" transform="matrix(-1 0 0 1 528.148 125.5)"/><path d="M527.833 185.5 527.833 203.076 527.167 203.076 527.167 185.5ZM531.5 201.743 527.5 209.743 523.5 201.743Z"/><path d="M527.833 285.5 527.833 337.055 527.167 337.055 527.167 285.5ZM531.5 335.721 527.5 343.721 523.5 335.721Z"/><path d="M527.833 378.5 527.833 395.868 527.167 395.868 527.167 378.5ZM531.5 394.534 527.5 402.534 523.5 394.535Z"/><text font-family="Calibri,Calibri_MSFontService,sans-serif" font-weight="400" font-size="19" transform="translate(738.22 280)">/edge/</text><text font-family="Calibri,Calibri_MSFontService,sans-serif" font-weight="400" font-size="19" transform="translate(789.394 280)">inference_time</text><path d="M0-0.333333 29.4443-0.333333 29.4443 578.509 29.111 578.176 51.5546 578.176 51.5546 578.843 28.7776 578.843 28.7776 0 29.111 0.333333 0 0.333333ZM50.2213 574.509 58.2213 578.509 50.2213 582.509Z" transform="matrix(1.83697e-16 1 1 -1.83697e-16 527.5 285.5)"/><path d="M1106.83 378.5 1106.83 395.957 1106.17 395.957 1106.17 378.5ZM1110.5 394.624 1106.5 402.624 1102.5 394.624Z"/><path d="M340.5 272C340.5 262.335 348.559 254.5 358.5 254.5 368.441 254.5 376.5 262.335 376.5 272 376.5 281.665 368.441 289.5 358.5 289.5 348.559 289.5 340.5 281.665 340.5 272Z" stroke="#AE5A21" stroke-width="1.33333" stroke-miterlimit="8" fill="#ED7D31" fill-rule="evenodd"/><path d="M340.5 318C340.5 308.335 348.559 300.5 358.5 300.5 368.441 300.5 376.5 308.335 376.5 318 376.5 327.665 368.441 335.5 358.5 335.5 348.559 335.5 340.5 327.665 340.5 318Z" stroke="#AE5A21" stroke-width="1.33333" stroke-miterlimit="8" fill="#ED7D31" fill-rule="evenodd"/><path d="M249.167 402.32 249.167 271.167 334.14 271.167 334.14 271.833 249.5 271.833 249.833 271.5 249.833 402.32ZM332.807 267.5 340.807 271.5 332.807 275.5Z"/><path d="M249.167 403.177 249.167 226.167 334.207 226.167 334.207 226.833 249.5 226.833 249.833 226.5 249.833 403.177ZM332.874 222.5 340.874 226.5 332.874 230.5Z"/><path d="M249.167 402.426 249.167 179.167 334.207 179.167 334.207 179.833 249.5 179.833 249.833 179.5 249.833 402.426ZM332.874 175.5 340.874 179.5 332.874 183.5Z"/><path d="M433.432 440.82 358.167 440.82 358.167 342.167 358.833 342.167 358.833 440.487 358.5 440.153 433.432 440.153ZM354.5 343.5 358.5 335.5 362.5 343.5Z"/><text font-family="Calibri,Calibri_MSFontService,sans-serif" font-weight="400" font-size="19" transform="translate(85.8533 185)">/robot/cpu_percent</text><text font-family="Calibri,Calibri_MSFontService,sans-serif" font-weight="400" font-size="19" transform="translate(189.9 218)">/robot</text><text font-family="Calibri,Calibri_MSFontService,sans-serif" font-weight="400" font-size="19" transform="translate(20.76 241)">/cpu_energy_consumption_j</text><text font-family="Calibri,Calibri_MSFontService,sans-serif" font-weight="400" font-size="19" transform="translate(60.1799 277)">/robot/net_io_counters</text><text font-family="Calibri,Calibri_MSFontService,sans-serif" font-weight="400" font-size="19" transform="translate(68.2066 323)">/robot/</text><text font-family="Calibri,Calibri_MSFontService,sans-serif" font-weight="400" font-size="19" transform="translate(124.573 323)">inference_time</text><path d="M0.00262886-0.333323 92.3083 0.394677 92.303 1.06132-0.00262886 0.333323ZM91.004-3.28239 98.9722 0.780577 90.9409 4.71736Z" transform="matrix(-1 0 0 1 721.472 246.5)"/><path d="M376.5 179.167 405.38 179.167 405.38 246.831 405.047 246.498 426.927 246.498 426.927 247.165 404.714 247.165 404.714 179.5 405.047 179.833 376.5 179.833ZM425.594 242.831 433.594 246.831 425.594 250.831Z"/><path d="M376.5 226.167 405.38 226.167 405.38 247.582 405.047 247.249 426.927 247.249 426.927 247.915 404.714 247.915 404.714 226.5 405.047 226.833 376.5 226.833ZM425.594 243.582 433.594 247.582 425.594 251.582Z"/><path d="M0-0.333333 28.9135-0.333333 28.9135 24.7749 28.5802 24.4416 50.4938 24.4416 50.4938 25.1082 28.2469 25.1082 28.2469 0 28.5802 0.333333 0 0.333333ZM49.1604 20.7749 57.1604 24.7749 49.1604 28.7749Z" transform="matrix(1 0 0 -1 376.5 272.275)"/><path d="M0-0.333333 28.9136-0.333333 28.9136 70.6316 28.5802 70.2983 50.4938 70.2983 50.4938 70.9649 28.2469 70.9649 28.2469 0 28.5802 0.333333 0 0.333333ZM49.1604 66.6316 57.1604 70.6316 49.1604 74.6316Z" transform="matrix(1 0 0 -1 376.5 318.132)"/><text font-family="Calibri,Calibri_MSFontService,sans-serif" font-weight="400" font-size="21" transform="translate(710.722 44)">Robot onboard system</text><text font-family="Calibri,Calibri_MSFontService,sans-serif" font-weight="400" font-size="21" transform="translate(994.6 45)">Edge Computer</text><path d="M10.5001 622.667C10.5001 619.261 13.261 616.5 16.6668 616.5L42.3333 616.5C45.7391 616.5 48.5001 619.261 48.5001 622.667L48.5001 647.333C48.5001 650.739 45.7391 653.5 42.3333 653.5L16.6668 653.5C13.261 653.5 10.5001 650.739 10.5001 647.333Z" stroke="#2F528F" stroke-width="1.33333" stroke-miterlimit="8" fill="#4472C4" fill-rule="evenodd"/><text font-family="Calibri,Calibri_MSFontService,sans-serif" font-weight="400" font-size="24" transform="translate(55.679 642)">ROS node</text><text font-family="Calibri,Calibri_MSFontService,sans-serif" font-weight="400" font-size="24" transform="translate(228.359 642)">ROS topic</text><path d="M181.5 634.5C181.5 624.007 190.007 615.5 200.5 615.5 210.993 615.5 219.5 624.007 219.5 634.5 219.5 644.993 210.993 653.5 200.5 653.5 190.007 653.5 181.5 644.993 181.5 634.5Z" stroke="#AE5A21" stroke-width="1.33333" stroke-miterlimit="8" fill="#ED7D31" fill-rule="evenodd"/><path d="M340.5 634.167 371.629 634.167 371.629 634.833 340.5 634.833ZM370.295 630.5 378.295 634.5 370.295 638.5Z"/><text font-family="Calibri,Calibri_MSFontService,sans-serif" font-weight="400" font-size="24" transform="translate(391.154 642)">Publish/Subscribe</text><rect x="585.5" y="614.5" width="37" height="38" stroke="#507E32" stroke-width="1.33333" stroke-miterlimit="8" fill="#70AD47"/><text font-family="Calibri,Calibri_MSFontService,sans-serif" font-weight="400" font-size="24" transform="translate(633.564 643)">Network</text><path d="M717.5 90.0002C717.5 83.0966 723.097 77.5001 730 77.5001L894 77.5001C900.904 77.5001 906.5 83.0966 906.5 90.0002L906.5 140C906.5 146.904 900.904 152.5 894 152.5L730 152.5C723.097 152.5 717.5 146.904 717.5 140Z" stroke="#2F528F" stroke-width="1.33333" stroke-miterlimit="8" fill="#4472C4" fill-rule="evenodd"/><text fill="#FFFFFF" font-family="Calibri,Calibri_MSFontService,sans-serif" font-weight="400" font-size="21" transform="translate(768.038 122)">Ping node</text><path d="M1071.5 91.0002C1071.5 84.0966 1077.1 78.5001 1084 78.5001L1248 78.5001C1254.9 78.5001 1260.5 84.0966 1260.5 91.0002L1260.5 141C1260.5 147.904 1254.9 153.5 1248 153.5L1084 153.5C1077.1 153.5 1071.5 147.904 1071.5 141Z" stroke="#2F528F" stroke-width="1.33333" stroke-miterlimit="8" fill="#4472C4" fill-rule="evenodd"/><text fill="#FFFFFF" font-family="Calibri,Calibri_MSFontService,sans-serif" font-weight="400" font-size="21" transform="translate(1122.84 123)">Ping node</text><path d="M1005.5 116C1005.5 106.335 1013.56 98.5001 1023.5 98.5001 1033.44 98.5001 1041.5 106.335 1041.5 116 1041.5 125.665 1033.44 133.5 1023.5 133.5 1013.56 133.5 1005.5 125.665 1005.5 116Z" stroke="#AE5A21" stroke-width="1.33333" stroke-miterlimit="8" fill="#ED7D31" fill-rule="evenodd"/><text font-family="Calibri,Calibri_MSFontService,sans-serif" font-weight="400" font-size="19" transform="translate(1010.53 92)">/ping</text><path d="M720.5 203.5C720.5 193.559 728.559 185.5 738.5 185.5 748.441 185.5 756.5 193.559 756.5 203.5 756.5 213.441 748.441 221.5 738.5 221.5 728.559 221.5 720.5 213.441 720.5 203.5Z" stroke="#AE5A21" stroke-width="1.33333" stroke-miterlimit="8" fill="#ED7D31" fill-rule="evenodd"/><text font-family="Calibri,Calibri_MSFontService,sans-serif" font-weight="400" font-size="19" transform="translate(726.234 177)">/pong</text><path d="M906.503 114.167 999.316 115.12 999.309 115.786 906.497 114.833ZM998.02 111.44 1005.98 115.522 997.938 119.439Z"/><path d="M1041.5 115.167 1065.64 115.167 1065.64 115.833 1041.5 115.833ZM1064.3 111.5 1072.3 115.5 1064.3 119.5Z"/><path d="M721.5 246.5C721.5 236.559 729.335 228.5 739 228.5 748.665 228.5 756.5 236.559 756.5 246.5 756.5 256.441 748.665 264.5 739 264.5 729.335 264.5 721.5 256.441 721.5 246.5Z" stroke="#AE5A21" stroke-width="1.33333" stroke-miterlimit="8" fill="#ED7D31" fill-rule="evenodd"/><path d="M1166.87 153.5 1166.87 203.518 763.165 203.518 763.165 202.852 1166.53 202.852 1166.2 203.185 1166.2 153.5ZM764.5 207.185 756.5 203.185 764.5 199.185Z"/><path d="M0-0.333333 49.6269-0.333333 49.6269 43.8208 49.2935 43.4875 91.9204 43.4875 91.9204 44.1541 48.9602 44.1541 48.9602 0 49.2935 0.333333 0 0.333333ZM90.5871 39.8208 98.5871 43.8208 90.5871 47.8208Z" transform="matrix(-1 1.22465e-16 1.22465e-16 1 721.087 203.5)"/></g></svg>