<svg width="1165" height="572" xmlns="http://www.w3.org/2000/svg" xmlns:xlink="http://www.w3.org/1999/xlink" overflow="hidden"><defs><clipPath id="clip0"><rect x="55" y="73" width="1165" height="572"/></clipPath></defs><g clip-path="url(#clip0)" transform="translate(-55 -73)"><rect x="62" y="77" width="1156" height="566" stroke="#000000" stroke-width="2" stroke-miterlimit="8" fill="none"/><text font-family="Calibri,Calibri_MSFontService,sans-serif" font-weight="400" font-size="27" transform="translate(71.3777 106)">Host machine</text><path d="M108 187.335C108 147.385 140.385 115 180.335 115L469.665 115C509.614 115 542 147.385 542 187.335L542 533.665C542 573.615 509.614 606 469.665 606L180.335 606C140.385 606 108 573.615 108 533.665Z" stroke="#000000" stroke-width="2" stroke-miterlimit="8" fill="#FFFFFF" fill-rule="evenodd"/><path d="M785 179.501C785 143.878 813.878 115 849.501 115L1107.5 115C1143.12 115 1172 143.878 1172 179.501L1172 541.499C1172 577.122 1143.12 606 1107.5 606L849.501 606C813.878 606 785 577.122 785 541.499Z" stroke="#000000" stroke-width="2" stroke-miterlimit="8" fill="none" fill-rule="evenodd"/><path d="M542.5 226.001C542.5 203.633 560.633 185.5 583.001 185.5L744.999 185.5C767.367 185.5 785.5 203.633 785.5 226.001L785.5 517.999C785.5 540.367 767.367 558.5 744.999 558.5L583.001 558.5C560.633 558.5 542.5 540.367 542.5 517.999Z" stroke="#507E32" stroke-width="1.33333" stroke-miterlimit="8" fill="#70AD47" fill-rule="evenodd"/><text fill="#FFFFFF" font-family="Calibri,Calibri_MSFontService,sans-serif" font-weight="400" font-size="24" transform="translate(595.403 365)">Docker bridge</text><text fill="#FFFFFF" font-family="Calibri,Calibri_MSFontService,sans-serif" font-weight="400" font-size="24" transform="translate(622.67 394)">network</text><path d="M155.5 280.834C155.5 272.365 162.365 265.5 170.834 265.5L391.166 265.5C399.635 265.5 406.5 272.365 406.5 280.834L406.5 342.166C406.5 350.635 399.635 357.5 391.166 357.5L170.834 357.5C162.365 357.5 155.5 350.635 155.5 342.166Z" stroke="#AE5A21" stroke-width="1.33333" stroke-miterlimit="8" fill="#ED7D31" fill-rule="evenodd"/><text fill="#FFFFFF" font-family="Calibri,Calibri_MSFontService,sans-serif" font-weight="400" font-size="24" transform="translate(189.422 318)">Offloading module</text><path d="M155.5 172.834C155.5 164.365 162.365 157.5 170.834 157.5L391.166 157.5C399.635 157.5 406.5 164.365 406.5 172.834L406.5 234.166C406.5 242.635 399.635 249.5 391.166 249.5L170.834 249.5C162.365 249.5 155.5 242.635 155.5 234.166Z" stroke="#2F528F" stroke-width="1.33333" stroke-miterlimit="8" fill="#4472C4" fill-rule="evenodd"/><text fill="#FFFFFF" font-family="Calibri,Calibri_MSFontService,sans-serif" font-weight="400" font-size="24" transform="translate(228.582 211)">Simulation</text><path d="M155.5 387.834C155.5 379.365 162.365 372.5 170.834 372.5L391.166 372.5C399.635 372.5 406.5 379.365 406.5 387.834L406.5 449.166C406.5 457.635 399.635 464.5 391.166 464.5L170.834 464.5C162.365 464.5 155.5 457.635 155.5 449.166Z" stroke="#2F528F" stroke-width="1.33333" stroke-miterlimit="8" fill="#4472C4" fill-rule="evenodd"/><text fill="#FFFFFF" font-family="Calibri,Calibri_MSFontService,sans-serif" font-weight="400" font-size="24" transform="translate(195.449 411)">Robot</text><text fill="#FFFFFF" font-family="Calibri,Calibri_MSFontService,sans-serif" font-weight="400" font-size="24" transform="translate(259.455 411)">p</text><text fill="#FFFFFF" font-family="Calibri,Calibri_MSFontService,sans-serif" font-weight="400" font-size="24" transform="translate(272.122 411)">erception</text><text fill="#FFFFFF" font-family="Calibri,Calibri_MSFontService,sans-serif" font-weight="400" font-size="24" transform="translate(243.222 440)">module</text><path d="M155.5 494.834C155.5 486.365 162.365 479.5 170.834 479.5L391.166 479.5C399.635 479.5 406.5 486.365 406.5 494.834L406.5 556.166C406.5 564.635 399.635 571.5 391.166 571.5L170.834 571.5C162.365 571.5 155.5 564.635 155.5 556.166Z" stroke="#787878" stroke-width="1.33333" stroke-miterlimit="8" fill="#A5A5A5" fill-rule="evenodd"/><text fill="#FFFFFF" font-family="Calibri,Calibri_MSFontService,sans-serif" font-weight="400" font-size="24" transform="translate(209.099 532)">State</text><text fill="#FFFFFF" font-family="Calibri,Calibri_MSFontService,sans-serif" font-weight="400" font-size="24" transform="translate(264.325 532)">monitors</text><path d="M853.5 278.834C853.5 270.365 860.365 263.5 868.834 263.5L1089.17 263.5C1097.63 263.5 1104.5 270.365 1104.5 278.834L1104.5 340.166C1104.5 348.635 1097.63 355.5 1089.17 355.5L868.834 355.5C860.365 355.5 853.5 348.635 853.5 340.166Z" stroke="#2F528F" stroke-width="1.33333" stroke-miterlimit="8" fill="#4472C4" fill-rule="evenodd"/><text fill="#FFFFFF" font-family="Calibri,Calibri_MSFontService,sans-serif" font-weight="400" font-size="24" transform="translate(898.812 302)">Edge</text><text fill="#FFFFFF" font-family="Calibri,Calibri_MSFontService,sans-serif" font-weight="400" font-size="24" transform="translate(951.426 302)">p</text><text fill="#FFFFFF" font-family="Calibri,Calibri_MSFontService,sans-serif" font-weight="400" font-size="24" transform="translate(964.092 302)">erception</text><text fill="#FFFFFF" font-family="Calibri,Calibri_MSFontService,sans-serif" font-weight="400" font-size="24" transform="translate(940.886 331)">module</text><path d="M853.5 385.834C853.5 377.365 860.365 370.5 868.834 370.5L1089.17 370.5C1097.63 370.5 1104.5 377.365 1104.5 385.834L1104.5 447.166C1104.5 455.635 1097.63 462.5 1089.17 462.5L868.834 462.5C860.365 462.5 853.5 455.635 853.5 447.166Z" stroke="#787878" stroke-width="1.33333" stroke-miterlimit="8" fill="#A5A5A5" fill-rule="evenodd"/><text fill="#FFFFFF" font-family="Calibri,Calibri_MSFontService,sans-serif" font-weight="400" font-size="24" transform="translate(906.766 424)">State</text><text fill="#FFFFFF" font-family="Calibri,Calibri_MSFontService,sans-serif" font-weight="400" font-size="24" transform="translate(961.992 424)">monitors</text><text font-family="Calibri,Calibri_MSFontService,sans-serif" font-weight="400" font-size="24" transform="translate(185.489 139)">Robot Container</text><text font-family="Calibri,Calibri_MSFontService,sans-serif" font-weight="400" font-size="24" transform="translate(862.267 145)">Edg</text><text font-family="Calibri,Calibri_MSFontService,sans-serif" font-weight="400" font-size="24" transform="translate(897.38 145)">e</text><text font-family="Calibri,Calibri_MSFontService,sans-serif" font-weight="400" font-size="24" transform="translate(914.88 145)">Container</text><path d="M444.5 201.836C444.5 192.814 451.814 185.5 460.836 185.5L526.179 185.5C535.201 185.5 542.515 192.814 542.515 201.836L542.515 542.164C542.515 551.186 535.201 558.5 526.179 558.5L460.836 558.5C451.814 558.5 444.5 551.186 444.5 542.164Z" stroke="#507E32" stroke-width="1.33333" stroke-miterlimit="8" fill="#548235" fill-rule="evenodd"/><text fill="#FFFFFF" font-family="Calibri,Calibri_MSFontService,sans-serif" font-weight="400" font-size="24" transform="translate(459.563 379)">NetEm</text></g></svg>