<svg width="1044" height="633" xmlns="http://www.w3.org/2000/svg" xmlns:xlink="http://www.w3.org/1999/xlink" overflow="hidden"><defs><clipPath id="clip0"><rect x="147" y="32" width="1044" height="633"/></clipPath></defs><g clip-path="url(#clip0)" transform="translate(-147 -32)"><rect x="767.5" y="35.5001" width="384" height="576" stroke="#000000" stroke-width="1.33333" stroke-miterlimit="8" fill="none"/><rect x="148.5" y="35.5001" width="528" height="576" stroke="#000000" stroke-width="1.33333" stroke-miterlimit="8" fill="none"/><path d="M432.5 284.5C432.5 271.245 443.245 260.5 456.5 260.5L600.5 260.5C613.755 260.5 624.5 271.245 624.5 284.5L624.5 380.5C624.5 393.755 613.755 404.5 600.5 404.5L456.5 404.5C443.245 404.5 432.5 393.755 432.5 380.5Z" stroke="#AE5A21" stroke-width="1.33333" stroke-miterlimit="8" fill="#ED7D31" fill-rule="evenodd"/><text fill="#FFFFFF" font-family="Calibri,Calibri_MSFontService,sans-serif" font-weight="400" font-size="21" transform="translate(482.699 327)">Offloading</text><text fill="#FFFFFF" font-family="Calibri,Calibri_MSFontService,sans-serif" font-weight="400" font-size="21" transform="translate(494.266 353)">Module</text><path d="M433.5 465.5C433.5 452.245 444.245 441.5 457.5 441.5L601.5 441.5C614.755 441.5 625.5 452.245 625.5 465.5L625.5 561.5C625.5 574.755 614.755 585.5 601.5 585.5L457.5 585.5C444.245 585.5 433.5 574.755 433.5 561.5Z" stroke="#2F528F" stroke-width="1.33333" stroke-miterlimit="8" fill="#4472C4" fill-rule="evenodd"/><text fill="#FFFFFF" font-family="Calibri,Calibri_MSFontService,sans-serif" font-weight="400" font-size="21" transform="translate(453.797 507)">Robot Perception</text><text fill="#FFFFFF" font-family="Calibri,Calibri_MSFontService,sans-serif" font-weight="400" font-size="21" transform="translate(457.41 533)">Module (Simple)</text><path d="M192.5 465.5C192.5 452.245 203.245 441.5 216.5 441.5L360.5 441.5C373.755 441.5 384.5 452.245 384.5 465.5L384.5 561.5C384.5 574.755 373.755 585.5 360.5 585.5L216.5 585.5C203.245 585.5 192.5 574.755 192.5 561.5Z" stroke="#2F528F" stroke-width="1.33333" stroke-miterlimit="8" fill="#4472C4" fill-rule="evenodd"/><text fill="#FFFFFF" font-family="Calibri,Calibri_MSFontService,sans-serif" font-weight="400" font-size="21" transform="translate(254.322 520)">Camera</text><path d="M863.5 465.5C863.5 452.245 874.245 441.5 887.5 441.5L1031.5 441.5C1044.75 441.5 1055.5 452.245 1055.5 465.5L1055.5 561.5C1055.5 574.755 1044.75 585.5 1031.5 585.5L887.5 585.5C874.245 585.5 863.5 574.755 863.5 561.5Z" stroke="#2F528F" stroke-width="1.33333" stroke-miterlimit="8" fill="#4472C4" fill-rule="evenodd"/><text fill="#FFFFFF" font-family="Calibri,Calibri_MSFontService,sans-serif" font-weight="400" font-size="21" transform="translate(888.939 495)">Edge Perception</text><text fill="#FFFFFF" font-family="Calibri,Calibri_MSFontService,sans-serif" font-weight="400" font-size="21" transform="translate(925.445 521)">Module</text><text fill="#FFFFFF" font-family="Calibri,Calibri_MSFontService,sans-serif" font-weight="400" font-size="21" transform="translate(915.019 546)">(Complex)</text><path d="M432.5 104.5C432.5 91.2454 443.245 80.5001 456.5 80.5001L600.5 80.5001C613.755 80.5001 624.5 91.2454 624.5 104.5L624.5 200.5C624.5 213.755 613.755 224.5 600.5 224.5L456.5 224.5C443.245 224.5 432.5 213.755 432.5 200.5Z" stroke="#787878" stroke-width="1.33333" stroke-miterlimit="8" fill="#A5A5A5" fill-rule="evenodd"/><text fill="#FFFFFF" font-family="Calibri,Calibri_MSFontService,sans-serif" font-weight="400" font-size="21" transform="translate(452.273 159)">Network Monitor</text><path d="M192.5 104.5C192.5 91.2454 203.245 80.5001 216.5 80.5001L360.5 80.5001C373.755 80.5001 384.5 91.2454 384.5 104.5L384.5 200.5C384.5 213.755 373.755 224.5 360.5 224.5L216.5 224.5C203.245 224.5 192.5 213.755 192.5 200.5Z" stroke="#787878" stroke-width="1.33333" stroke-miterlimit="8" fill="#A5A5A5" fill-rule="evenodd"/><text fill="#FFFFFF" font-family="Calibri,Calibri_MSFontService,sans-serif" font-weight="400" font-size="21" transform="translate(209.632 159)">Resource Monitor</text><path d="M540.833 404.489 541.841 434.55 541.174 434.573 540.167 404.511ZM545.461 433.095 541.731 441.224 537.465 433.363Z" fill="#4472C4"/><path d="M625.5 345.167 941.627 345.167 941.748 434.347 941.081 434.348 940.961 345.501 941.294 345.833 625.5 345.833ZM945.278 432.66 942.013 440.987 937.311 433.379Z" fill="#4472C4"/><path d="M863.5 104.5C863.5 91.2454 874.245 80.5001 887.5 80.5001L1031.5 80.5001C1044.75 80.5001 1055.5 91.2454 1055.5 104.5L1055.5 200.5C1055.5 213.755 1044.75 224.5 1031.5 224.5L887.5 224.5C874.245 224.5 863.5 213.755 863.5 200.5Z" stroke="#787878" stroke-width="1.33333" stroke-miterlimit="8" fill="#A5A5A5" fill-rule="evenodd"/><text fill="#FFFFFF" font-family="Calibri,Calibri_MSFontService,sans-serif" font-weight="400" font-size="21" transform="translate(883.452 159)">Network Monitor</text><text font-family="Calibri,Calibri_MSFontService,sans-serif" font-weight="400" font-size="21" transform="translate(461.221 59)">Robot onboard system</text><path d="M0-0.333333 59.97-0.333333 59.97 134.77 59.3033 134.77 59.3033 0 59.6366 0.333333 0 0.333333ZM63.6366 133.436 59.6366 141.436 55.6366 133.436Z" transform="matrix(1.83697e-16 1 1 -1.83697e-16 288.5 224.5)"/><path d="M0.333287-0.00558242 0.836756 30.053 0.170183 30.0642-0.333287 0.00558242ZM4.48058 28.6584 0.615118 36.7243-3.5183 28.7924Z" transform="matrix(-1 0 0 1 540.115 224.5)"/><path d="M625.5 137.167 856.782 137.167 856.782 137.833 625.5 137.833ZM855.449 133.5 863.449 137.5 855.449 141.5Z"/><path d="M1.46315e-07-0.333333 232.513-0.333231 232.513 0.333435-1.46315e-07 0.333333ZM231.179-3.9999 239.179 0.000104987 231.179 4.0001Z" transform="matrix(-1 0 0 1 863.68 167.5)"/><text font-family="Calibri,Calibri_MSFontService,sans-serif" font-weight="400" font-size="21" transform="translate(776.709 59)">Edge Computer</text><path d="M975.346 440.981 975.346 317.5 975.679 317.833 631.165 317.833 631.165 317.167 976.013 317.167 976.013 440.981ZM632.5 321.5 624.5 317.5 632.5 313.5Z" fill="#4472C4"/><text font-family="Calibri,Calibri_MSFontService,sans-serif" font-weight="400" font-size="15" transform="translate(777.94 364)">Offloaded Image</text><text font-family="Calibri,Calibri_MSFontService,sans-serif" font-weight="400" font-size="15" transform="translate(776.709 310)">Detection results + inference time</text><text font-family="Calibri,Calibri_MSFontService,sans-serif" font-weight="400" font-size="15" transform="translate(550.093 244)">Network delay</text><text font-family="Calibri,Calibri_MSFontService,sans-serif" font-weight="400" font-size="15" transform="translate(545.118 419)">Locally computed</text><text font-family="Calibri,Calibri_MSFontService,sans-serif" font-weight="400" font-size="15" transform="translate(545.118 436)">Image</text><text font-family="Calibri,Calibri_MSFontService,sans-serif" font-weight="400" font-size="15" transform="translate(294.997 413)">RGB image</text><text font-family="Calibri,Calibri_MSFontService,sans-serif" font-weight="400" font-size="15" transform="translate(291.718 252)">CPU usage</text><text font-family="Calibri,Calibri_MSFontService,sans-serif" font-weight="400" font-size="15" transform="translate(291.718 269)">+ power consumption</text><path d="M0.333333-9.52925e-07 0.333419 30.0577-0.333247 30.0577-0.333333 9.52925e-07ZM4.00008 28.7244 0.000104987 36.7244-3.99992 28.7244Z" transform="matrix(1 0 0 -1 510.5 261.224)"/><text font-family="Calibri,Calibri_MSFontService,sans-serif" font-weight="400" font-size="15" transform="translate(410.178 244)">Image sent time</text><text font-family="Calibri,Calibri_MSFontService,sans-serif" font-weight="400" font-size="16" transform="translate(678.862 112)">Image sent</text><text font-family="Calibri,Calibri_MSFontService,sans-serif" font-weight="400" font-size="16" transform="translate(678.862 131)">time</text><text font-family="Calibri,Calibri_MSFontService,sans-serif" font-weight="400" font-size="15" transform="translate(678.452 185)">Image received</text><text font-family="Calibri,Calibri_MSFontService,sans-serif" font-weight="400" font-size="15" transform="translate(678.452 202)">time</text><path d="M148.5 631.333C148.5 628.664 150.664 626.5 153.333 626.5L172.667 626.5C175.336 626.5 177.5 628.664 177.5 631.333L177.5 650.667C177.5 653.336 175.336 655.5 172.667 655.5L153.333 655.5C150.664 655.5 148.5 653.336 148.5 650.667Z" stroke="#2F528F" stroke-width="1.33333" stroke-miterlimit="8" fill="#4472C4" fill-rule="evenodd"/><text font-family="Calibri,Calibri_MSFontService,sans-serif" font-weight="400" font-size="19" transform="translate(186.842 647)">Perception modules</text><path d="M347.5 631.333C347.5 628.664 349.664 626.5 352.333 626.5L371.667 626.5C374.336 626.5 376.5 628.664 376.5 631.333L376.5 650.667C376.5 653.336 374.336 655.5 371.667 655.5L352.333 655.5C349.664 655.5 347.5 653.336 347.5 650.667Z" stroke="#AE5A21" stroke-width="1.33333" stroke-miterlimit="8" fill="#ED7D31" fill-rule="evenodd"/><text font-family="Calibri,Calibri_MSFontService,sans-serif" font-weight="400" font-size="19" transform="translate(385.434 647)">Offloading module</text><path d="M534.5 631.333C534.5 628.664 536.664 626.5 539.333 626.5L558.667 626.5C561.336 626.5 563.5 628.664 563.5 631.333L563.5 650.667C563.5 653.336 561.336 655.5 558.667 655.5L539.333 655.5C536.664 655.5 534.5 653.336 534.5 650.667Z" stroke="#787878" stroke-width="1.33333" stroke-miterlimit="8" fill="#A5A5A5" fill-rule="evenodd"/><text font-family="Calibri,Calibri_MSFontService,sans-serif" font-weight="400" font-size="19" transform="translate(572.441 647)">State monitors</text><path d="M697.5 642.167 723.654 642.167 723.654 642.833 697.5 642.833ZM722.32 638.5 730.32 642.5 722.32 646.5Z"/><text font-family="Calibri,Calibri_MSFontService,sans-serif" font-weight="400" font-size="19" transform="translate(740.886 647)">System states data flow</text><path d="M192.5 317.5C192.5 313.082 196.082 309.5 200.5 309.5L328.5 309.5C332.918 309.5 336.5 313.082 336.5 317.5L336.5 349.5C336.5 353.918 332.918 357.5 328.5 357.5L200.5 357.5C196.082 357.5 192.5 353.918 192.5 349.5Z" stroke="#AE5A21" stroke-width="1.33333" stroke-miterlimit="8" fill="#ED7D31" fill-rule="evenodd"/><text fill="#FFFFFF" font-family="Calibri,Calibri_MSFontService,sans-serif" font-weight="400" font-size="19" transform="translate(206.729 339)">Strategy Plugin</text><path d="M3.62986e-07-0.333333 89.7436-0.333236 89.7436 0.333431-3.62986e-07 0.333333ZM88.4103-3.9999 96.4103 0.000104987 88.4103 4.0001Z" transform="matrix(-1 0 0 1 432.91 322.5)"/><path d="M336.5 340.167 427.474 340.167 427.474 340.833 336.5 340.833ZM426.141 336.5 434.141 340.5 426.141 344.5Z"/><text font-family="Calibri,Calibri_MSFontService,sans-serif" font-weight="400" font-size="15" transform="translate(353.119 354)">Offloading</text><text font-family="Calibri,Calibri_MSFontService,sans-serif" font-weight="400" font-size="15" transform="translate(353.119 371)">Decision</text><text font-family="Calibri,Calibri_MSFontService,sans-serif" font-weight="400" font-size="15" transform="translate(346.5 314)">System States</text><path d="M288.167 441.867 288.167 386.167 426.244 386.167 426.244 386.833 288.5 386.833 288.833 386.5 288.833 441.867ZM424.91 382.5 432.91 386.5 424.91 390.5Z" fill="#4472C4"/><path d="M0.333333-9.55761e-07 0.333419 29.9488-0.333247 29.9488-0.333333 9.55761e-07ZM4.00008 28.6154 0.000104987 36.6154-3.99992 28.6154Z" fill="#4472C4" transform="matrix(1 0 0 -1 513.5 441.115)"/><text font-family="Calibri,Calibri_MSFontService,sans-serif" font-weight="400" font-size="15" transform="translate(406.653 420)">Detection results</text><text font-family="Calibri,Calibri_MSFontService,sans-serif" font-weight="400" font-size="15" transform="translate(406.653 437)">+ inference time</text><path d="M929.5 643.167 955.654 643.167 955.654 643.833 929.5 643.833ZM954.32 639.5 962.32 643.5 954.32 647.5Z" fill="#4472C4"/><text font-family="Calibri,Calibri_MSFontService,sans-serif" font-weight="400" font-size="19" transform="translate(973.894 647)">Perception task data flow</text></g></svg>